<?xml version="1.0" encoding="UTF-8" standalone="no"?>
<svg
   width="33"
   height="45"
   viewBox="0 0 33 45"
   fill="none"
   version="1.1"
   id="svg2"
   sodipodi:docname="logo.svg"
   inkscape:export-filename="dl.png"
   inkscape:export-xdpi="300"
   inkscape:export-ydpi="300"
   inkscape:version="1.4 (86a8ad7, 2024-10-11)"
   xmlns:inkscape="http://www.inkscape.org/namespaces/inkscape"
   xmlns:sodipodi="http://sodipodi.sourceforge.net/DTD/sodipodi-0.dtd"
   xmlns="http://www.w3.org/2000/svg"
   xmlns:svg="http://www.w3.org/2000/svg">
  <defs
     id="defs2" />
  <sodipodi:namedview
     id="namedview2"
     pagecolor="#505050"
     bordercolor="#eeeeee"
     borderopacity="1"
     inkscape:showpageshadow="0"
     inkscape:pageopacity="0"
     inkscape:pagecheckerboard="0"
     inkscape:deskcolor="#505050"
     inkscape:zoom="17.803377"
     inkscape:cx="7.3581544"
     inkscape:cy="24.573989"
     inkscape:window-width="2400"
     inkscape:window-height="1321"
     inkscape:window-x="-9"
     inkscape:window-y="339"
     inkscape:window-maximized="1"
     inkscape:current-layer="svg2" />
  <g
     id="g3"
     transform="matrix(0.96198477,0,0,0.74125277,0.106364,5.1709118)">
    <g
       id="g2"
       transform="matrix(0.74289204,0,0,0.78013493,4.0793505,4.8497976)">
      <path
         d="M 26.9665,45 V 0.199997 h 5.12 V 45 Z"
         fill="#ffffff"
         id="path1" />
      <path
         d="M 9.288,45 C 6.6,45 4.424,44.2107 2.76,42.632 1.096,41.0533 0.264,38.9413 0.264,36.296 V 20.36 c 0,-1.8347 0.490667,-3.392 1.472,-4.672 1.024,-1.28 2.28267,-2.1547 3.776,-2.624 l 8.576,-3.008 V 0.199997 h 5.12 V 45 Z m 4.8,-3.84 V 14.28 L 8.392,16.2 c -1.10933,0.3413 -1.89867,0.896 -2.368,1.664 -0.42667,0.7253 -0.64,1.8987 -0.64,3.52 v 14.912 c 0,1.536 0.448,2.7307 1.344,3.584 0.896,0.8533 2.112,1.28 3.648,1.28 z"
         fill="#ffffff"
         id="path2" />
    </g>
  </g>
</svg>
